# xmcd
# Track frame offsets:
# 150
# 15582
# 31705
# 42942
# 58227
# 73385
# 87165
# 104207
# 120480
# 136852
#
# Disc length: 1964 seconds
# Revision: 0
# Processed by: cddbd v1.5PL3 Copyright (c) Steve Scherf et al.
# Submitted via: VisiTrax 2.9.9.202 - For more info visit www.synapsa.com
#
DISCID=8807aa0a
DTITLE=Whitey Shafer - I Never Go Around Mirrors
DYEAR=1900
DGENRE=
TTITLE0=Does Fort Worth Ever Cross Your Mind
TTITLE1=I Never Go Around Mirrors
TTITLE2=Baby Doll
TTITLE3=I´ll Break Out Again Tonight
TTITLE4=Gazebo Joe
TTITLE5=The Whiskey`s In The Glass
TTITLE6=Down Louisiana Way
TTITLE7=Better Days
TTITLE8=Map Of San Antone
TTITLE9=Not Tonight
EXTD=
EXTT0=
EXTT1=
EXTT2=
EXTT3=
EXTT4=
EXTT5=
EXTT6=
EXTT7=
EXTT8=
EXTT9=
PLAYORDER=
